<svg xmlns="http://www.w3.org/2000/svg" viewBox="0 0 400 180" width="800" height="360"><defs>
<filter id="glow" x="-50%" y="-50%" width="200%" height="200%"><feGaussianBlur stdDeviation="1.8" result="b"/><feMerge><feMergeNode in="b"/><feMergeNode in="SourceGraphic"/></feMerge></filter>
<pattern id="grid" width="20" height="20" patternUnits="userSpaceOnUse"><path d="M20 0H0V20" fill="none" stroke="#00ff41" stroke-opacity="0.07" stroke-width="0.6"/></pattern>
<radialGradient id="spot" cx="0.700" cy="0.556" r="0.55"><stop offset="0" stop-color="#00ff41" stop-opacity="0.13"/><stop offset="1" stop-color="#00ff41" stop-opacity="0"/></radialGradient>
<radialGradient id="vig" cx="0.5" cy="0.5" r="0.78"><stop offset="0.6" stop-color="#000" stop-opacity="0"/><stop offset="1" stop-color="#000" stop-opacity="0.7"/></radialGradient>
</defs><rect width="400" height="180" fill="#050505"/><rect width="400" height="180" fill="url(#grid)"/><rect width="400" height="180" fill="url(#spot)"/><rect x="14" y="16" width="160" height="148" rx="6" stroke="#2a2a2a" fill="#0c0c0c" stroke-width="1.2" stroke-linecap="round" stroke-linejoin="round"/><line x1="14" y1="30" x2="174" y2="30" stroke="#2a2a2a" fill="none" stroke-width="1" stroke-linecap="round" stroke-linejoin="round"/><circle cx="23" cy="23" r="2.4" fill="#ff5f56"/><circle cx="31" cy="23" r="2.4" fill="#ffbd2e"/><circle cx="39" cy="23" r="2.4" fill="#27c93f"/><text x="52" y="23.5" font-size="8.5" fill="#8a8a8a" text-anchor="start" font-weight="400" font-family="JetBrains Mono, DejaVu Sans Mono, Menlo, Consolas, monospace" dominant-baseline="middle" xml:space="preserve">chat</text><rect x="78" y="38" width="88" height="22" rx="8" stroke="#00bfff" fill="#071c26" stroke-width="1.1" stroke-linecap="round" stroke-linejoin="round"/><text x="122" y="49.5" font-size="9.5" fill="#00bfff" text-anchor="middle" font-weight="400" font-family="JetBrains Mono, DejaVu Sans Mono, Menlo, Consolas, monospace" dominant-baseline="middle" xml:space="preserve">O que é IA?</text><circle cx="30" cy="80" r="9" stroke="#00ff41" fill="#0c0c0c" stroke-width="1.4" stroke-linecap="round" stroke-linejoin="round"/><rect x="25" y="77" width="10" height="7" rx="2" stroke="#00ff41" fill="none" stroke-width="1.2" stroke-linecap="round" stroke-linejoin="round"/><circle cx="28" cy="80.5" r="0.9" fill="#00ff41"/><circle cx="32" cy="80.5" r="0.9" fill="#00ff41"/><line x1="30" y1="71" x2="30" y2="68" stroke="#00ff41" fill="none" stroke-width="1.2" stroke-linecap="round" stroke-linejoin="round"/><circle cx="30" cy="67" r="1.4" fill="#00ff41"/><rect x="44" y="68" width="120" height="44" rx="8" stroke="#00ff41" fill="#06200d" stroke-width="1.1" stroke-linecap="round" stroke-linejoin="round"/><line x1="54" y1="79" x2="154" y2="79" stroke="#00ff41" fill="none" stroke-width="2" opacity="0.75" stroke-linecap="round" stroke-linejoin="round"/><line x1="54" y1="90" x2="140" y2="90" stroke="#00ff41" fill="none" stroke-width="2" opacity="0.75" stroke-linecap="round" stroke-linejoin="round"/><line x1="54" y1="101" x2="118" y2="101" stroke="#00ff41" fill="none" stroke-width="2" opacity="0.75" stroke-linecap="round" stroke-linejoin="round"/><rect x="70" y="124" width="96" height="22" rx="8" stroke="#00bfff" fill="#071c26" stroke-width="1.1" stroke-linecap="round" stroke-linejoin="round"/><text x="118" y="135.5" font-size="9" fill="#00bfff" text-anchor="middle" font-weight="400" font-family="JetBrains Mono, DejaVu Sans Mono, Menlo, Consolas, monospace" dominant-baseline="middle" xml:space="preserve">E um exemplo?</text><rect x="190" y="16" width="198" height="148" rx="6" stroke="#2a2a2a" fill="#0c0c0c" stroke-width="1.2" stroke-linecap="round" stroke-linejoin="round"/><line x1="190" y1="30" x2="388" y2="30" stroke="#2a2a2a" fill="none" stroke-width="1" stroke-linecap="round" stroke-linejoin="round"/><circle cx="199" cy="23" r="2.4" fill="#ff5f56"/><circle cx="207" cy="23" r="2.4" fill="#ffbd2e"/><circle cx="215" cy="23" r="2.4" fill="#27c93f"/><text x="228" y="23.5" font-size="8.5" fill="#8a8a8a" text-anchor="start" font-weight="400" font-family="JetBrains Mono, DejaVu Sans Mono, Menlo, Consolas, monospace" dominant-baseline="middle" xml:space="preserve">detect.ipynb</text><rect x="196" y="34" width="186" height="124" rx="3" fill="#08110b"/><path d="M214,122 h62 v-12 l-10,-12 h-34 l-12,12 z" stroke="#d0d0d0" fill="#1b1b1b" stroke-width="1.4" stroke-linecap="round" stroke-linejoin="round"/><circle cx="228" cy="124" r="7" stroke="#d0d0d0" fill="#050505" stroke-width="1.4" stroke-linecap="round" stroke-linejoin="round"/><circle cx="264" cy="124" r="7" stroke="#d0d0d0" fill="#050505" stroke-width="1.4" stroke-linecap="round" stroke-linejoin="round"/><rect x="206" y="88" width="80" height="46" rx="1" stroke="#00ff41" fill="none" stroke-width="1.6" filter="url(#glow)" stroke-linecap="round" stroke-linejoin="round"/><rect x="206" y="78" width="52" height="11" rx="1" fill="#00ff41"/><text x="232" y="83.5" font-size="8.5" fill="#002b0b" text-anchor="middle" font-weight="700" font-family="JetBrains Mono, DejaVu Sans Mono, Menlo, Consolas, monospace" dominant-baseline="middle" xml:space="preserve">car 0.94</text><polygon points="336,62 318,104 354,104" stroke="#d0d0d0" fill="#1b1b1b" stroke-width="1.4" stroke-linecap="round" stroke-linejoin="round"/><rect x="332" y="104" width="8" height="22" rx="1" stroke="#d0d0d0" fill="#1b1b1b" stroke-width="1.4" stroke-linecap="round" stroke-linejoin="round"/><rect x="308" y="56" width="56" height="74" rx="1" stroke="#ffd700" fill="none" stroke-width="1.6" filter="url(#glow)" stroke-linecap="round" stroke-linejoin="round"/><rect x="308" y="46" width="54" height="11" rx="1" fill="#ffd700"/><text x="335" y="51.5" font-size="8.5" fill="#2b2400" text-anchor="middle" font-weight="700" font-family="JetBrains Mono, DejaVu Sans Mono, Menlo, Consolas, monospace" dominant-baseline="middle" xml:space="preserve">tree 0.88</text><text x="372" y="151" font-size="9" fill="#00ff41" text-anchor="end" font-weight="700" font-family="JetBrains Mono, DejaVu Sans Mono, Menlo, Consolas, monospace" dominant-baseline="middle" xml:space="preserve">Infoeste 2025</text><rect width="400" height="180" fill="url(#vig)" pointer-events="none"/></svg>