<svg xmlns="http://www.w3.org/2000/svg" viewBox="0 0 400 180" width="800" height="360"><defs>
<filter id="glow" x="-50%" y="-50%" width="200%" height="200%"><feGaussianBlur stdDeviation="1.8" result="b"/><feMerge><feMergeNode in="b"/><feMergeNode in="SourceGraphic"/></feMerge></filter>
<pattern id="grid" width="20" height="20" patternUnits="userSpaceOnUse"><path d="M20 0H0V20" fill="none" stroke="#00ff41" stroke-opacity="0.07" stroke-width="0.6"/></pattern>
<radialGradient id="spot" cx="0.375" cy="0.556" r="0.55"><stop offset="0" stop-color="#00ff41" stop-opacity="0.13"/><stop offset="1" stop-color="#00ff41" stop-opacity="0"/></radialGradient>
<radialGradient id="vig" cx="0.5" cy="0.5" r="0.78"><stop offset="0.6" stop-color="#000" stop-opacity="0"/><stop offset="1" stop-color="#000" stop-opacity="0.7"/></radialGradient>
</defs><rect width="400" height="180" fill="#050505"/><rect width="400" height="180" fill="url(#grid)"/><rect width="400" height="180" fill="url(#spot)"/><line x1="56" y1="42" x2="150" y2="28" stroke="#00ff41" fill="none" stroke-width="1.56" opacity="0.54" stroke-linecap="round" stroke-linejoin="round"/><line x1="56" y1="42" x2="150" y2="51" stroke="#ff4500" fill="none" stroke-width="1.2" opacity="0.405" stroke-linecap="round" stroke-linejoin="round"/><line x1="56" y1="42" x2="150" y2="74" stroke="#00ff41" fill="none" stroke-width="0.96" opacity="0.315" stroke-linecap="round" stroke-linejoin="round"/><line x1="56" y1="42" x2="150" y2="97" stroke="#00ff41" fill="none" stroke-width="1.6800000000000002" opacity="0.585" stroke-linecap="round" stroke-linejoin="round"/><line x1="56" y1="42" x2="150" y2="120" stroke="#ff4500" fill="none" stroke-width="1.44" opacity="0.495" stroke-linecap="round" stroke-linejoin="round"/><line x1="56" y1="42" x2="150" y2="143" stroke="#00ff41" fill="none" stroke-width="0.84" opacity="0.27" stroke-linecap="round" stroke-linejoin="round"/><line x1="56" y1="70" x2="150" y2="28" stroke="#00ff41" fill="none" stroke-width="1.3199999999999998" opacity="0.45" stroke-linecap="round" stroke-linejoin="round"/><line x1="56" y1="70" x2="150" y2="51" stroke="#ff4500" fill="none" stroke-width="0.96" opacity="0.315" stroke-linecap="round" stroke-linejoin="round"/><line x1="56" y1="70" x2="150" y2="74" stroke="#00ff41" fill="none" stroke-width="1.5" opacity="0.5175000000000001" stroke-linecap="round" stroke-linejoin="round"/><line x1="56" y1="70" x2="150" y2="97" stroke="#ff4500" fill="none" stroke-width="1.6800000000000002" opacity="0.585" stroke-linecap="round" stroke-linejoin="round"/><line x1="56" y1="70" x2="150" y2="120" stroke="#00ff41" fill="none" stroke-width="1.08" opacity="0.36" stroke-linecap="round" stroke-linejoin="round"/><line x1="56" y1="70" x2="150" y2="143" stroke="#00ff41" fill="none" stroke-width="0.78" opacity="0.2475" stroke-linecap="round" stroke-linejoin="round"/><line x1="56" y1="98" x2="150" y2="28" stroke="#00ff41" fill="none" stroke-width="1.56" opacity="0.54" stroke-linecap="round" stroke-linejoin="round"/><line x1="56" y1="98" x2="150" y2="51" stroke="#ff4500" fill="none" stroke-width="1.2" opacity="0.405" stroke-linecap="round" stroke-linejoin="round"/><line x1="56" y1="98" x2="150" y2="74" stroke="#00ff41" fill="none" stroke-width="0.96" opacity="0.315" stroke-linecap="round" stroke-linejoin="round"/><line x1="56" y1="98" x2="150" y2="97" stroke="#00ff41" fill="none" stroke-width="1.6800000000000002" opacity="0.585" stroke-linecap="round" stroke-linejoin="round"/><line x1="56" y1="98" x2="150" y2="120" stroke="#ff4500" fill="none" stroke-width="1.44" opacity="0.495" stroke-linecap="round" stroke-linejoin="round"/><line x1="56" y1="98" x2="150" y2="143" stroke="#00ff41" fill="none" stroke-width="0.84" opacity="0.27" stroke-linecap="round" stroke-linejoin="round"/><line x1="56" y1="126" x2="150" y2="28" stroke="#00ff41" fill="none" stroke-width="1.3199999999999998" opacity="0.45" stroke-linecap="round" stroke-linejoin="round"/><line x1="56" y1="126" x2="150" y2="51" stroke="#ff4500" fill="none" stroke-width="0.96" opacity="0.315" stroke-linecap="round" stroke-linejoin="round"/><line x1="56" y1="126" x2="150" y2="74" stroke="#00ff41" fill="none" stroke-width="1.5" opacity="0.5175000000000001" stroke-linecap="round" stroke-linejoin="round"/><line x1="56" y1="126" x2="150" y2="97" stroke="#ff4500" fill="none" stroke-width="1.6800000000000002" opacity="0.585" stroke-linecap="round" stroke-linejoin="round"/><line x1="56" y1="126" x2="150" y2="120" stroke="#00ff41" fill="none" stroke-width="1.08" opacity="0.36" stroke-linecap="round" stroke-linejoin="round"/><line x1="56" y1="126" x2="150" y2="143" stroke="#00ff41" fill="none" stroke-width="0.78" opacity="0.2475" stroke-linecap="round" stroke-linejoin="round"/><line x1="150" y1="28" x2="244" y2="56" stroke="#00ff41" fill="none" stroke-width="1.56" opacity="0.54" stroke-linecap="round" stroke-linejoin="round"/><line x1="150" y1="28" x2="244" y2="84" stroke="#ff4500" fill="none" stroke-width="1.2" opacity="0.405" stroke-linecap="round" stroke-linejoin="round"/><line x1="150" y1="28" x2="244" y2="112" stroke="#00ff41" fill="none" stroke-width="0.96" opacity="0.315" stroke-linecap="round" stroke-linejoin="round"/><line x1="150" y1="51" x2="244" y2="56" stroke="#00ff41" fill="none" stroke-width="1.6800000000000002" opacity="0.585" stroke-linecap="round" stroke-linejoin="round"/><line x1="150" y1="51" x2="244" y2="84" stroke="#ff4500" fill="none" stroke-width="1.44" opacity="0.495" stroke-linecap="round" stroke-linejoin="round"/><line x1="150" y1="51" x2="244" y2="112" stroke="#00ff41" fill="none" stroke-width="0.84" opacity="0.27" stroke-linecap="round" stroke-linejoin="round"/><line x1="150" y1="74" x2="244" y2="56" stroke="#00ff41" fill="none" stroke-width="1.3199999999999998" opacity="0.45" stroke-linecap="round" stroke-linejoin="round"/><line x1="150" y1="74" x2="244" y2="84" stroke="#ff4500" fill="none" stroke-width="0.96" opacity="0.315" stroke-linecap="round" stroke-linejoin="round"/><line x1="150" y1="74" x2="244" y2="112" stroke="#00ff41" fill="none" stroke-width="1.5" opacity="0.5175000000000001" stroke-linecap="round" stroke-linejoin="round"/><line x1="150" y1="97" x2="244" y2="56" stroke="#ff4500" fill="none" stroke-width="1.6800000000000002" opacity="0.585" stroke-linecap="round" stroke-linejoin="round"/><line x1="150" y1="97" x2="244" y2="84" stroke="#00ff41" fill="none" stroke-width="1.08" opacity="0.36" stroke-linecap="round" stroke-linejoin="round"/><line x1="150" y1="97" x2="244" y2="112" stroke="#00ff41" fill="none" stroke-width="0.78" opacity="0.2475" stroke-linecap="round" stroke-linejoin="round"/><line x1="150" y1="120" x2="244" y2="56" stroke="#00ff41" fill="none" stroke-width="1.56" opacity="0.54" stroke-linecap="round" stroke-linejoin="round"/><line x1="150" y1="120" x2="244" y2="84" stroke="#ff4500" fill="none" stroke-width="1.2" opacity="0.405" stroke-linecap="round" stroke-linejoin="round"/><line x1="150" y1="120" x2="244" y2="112" stroke="#00ff41" fill="none" stroke-width="0.96" opacity="0.315" stroke-linecap="round" stroke-linejoin="round"/><line x1="150" y1="143" x2="244" y2="56" stroke="#00ff41" fill="none" stroke-width="1.6800000000000002" opacity="0.585" stroke-linecap="round" stroke-linejoin="round"/><line x1="150" y1="143" x2="244" y2="84" stroke="#ff4500" fill="none" stroke-width="1.44" opacity="0.495" stroke-linecap="round" stroke-linejoin="round"/><line x1="150" y1="143" x2="244" y2="112" stroke="#00ff41" fill="none" stroke-width="0.84" opacity="0.27" stroke-linecap="round" stroke-linejoin="round"/><circle cx="56" cy="42" r="7.5" stroke="#00bfff" fill="#0c0c0c" stroke-width="1.6" stroke-linecap="round" stroke-linejoin="round"/><circle cx="56" cy="70" r="7.5" stroke="#00bfff" fill="#0c0c0c" stroke-width="1.6" stroke-linecap="round" stroke-linejoin="round"/><circle cx="56" cy="98" r="7.5" stroke="#00bfff" fill="#0c0c0c" stroke-width="1.6" stroke-linecap="round" stroke-linejoin="round"/><circle cx="56" cy="126" r="7.5" stroke="#00bfff" fill="#0c0c0c" stroke-width="1.6" stroke-linecap="round" stroke-linejoin="round"/><circle cx="150" cy="28" r="7.5" stroke="#00ff41" fill="#0c0c0c" stroke-width="1.6" stroke-linecap="round" stroke-linejoin="round"/><circle cx="150" cy="51" r="7.5" stroke="#00ff41" fill="#0c0c0c" stroke-width="1.6" stroke-linecap="round" stroke-linejoin="round"/><circle cx="150" cy="74" r="7.5" stroke="#00ff41" fill="#0c0c0c" stroke-width="1.6" stroke-linecap="round" stroke-linejoin="round"/><circle cx="150" cy="97" r="7.5" stroke="#00ff41" fill="#0c0c0c" stroke-width="1.6" stroke-linecap="round" stroke-linejoin="round"/><circle cx="150" cy="120" r="7.5" stroke="#00ff41" fill="#0c0c0c" stroke-width="1.6" stroke-linecap="round" stroke-linejoin="round"/><circle cx="150" cy="143" r="7.5" stroke="#00ff41" fill="#0c0c0c" stroke-width="1.6" stroke-linecap="round" stroke-linejoin="round"/><circle cx="244" cy="56" r="7.5" stroke="#ffd700" fill="#0c0c0c" stroke-width="1.6" filter="url(#glow)" stroke-linecap="round" stroke-linejoin="round"/><circle cx="244" cy="84" r="7.5" stroke="#ffd700" fill="#0c0c0c" stroke-width="1.6" filter="url(#glow)" stroke-linecap="round" stroke-linejoin="round"/><circle cx="244" cy="112" r="7.5" stroke="#ffd700" fill="#0c0c0c" stroke-width="1.6" filter="url(#glow)" stroke-linecap="round" stroke-linejoin="round"/><text x="56" y="166" font-size="8.5" fill="#8a8a8a" text-anchor="middle" font-weight="400" font-family="JetBrains Mono, DejaVu Sans Mono, Menlo, Consolas, monospace" dominant-baseline="middle" xml:space="preserve">in</text><text x="150" y="166" font-size="8.5" fill="#8a8a8a" text-anchor="middle" font-weight="400" font-family="JetBrains Mono, DejaVu Sans Mono, Menlo, Consolas, monospace" dominant-baseline="middle" xml:space="preserve">hidden</text><text x="244" y="166" font-size="8.5" fill="#8a8a8a" text-anchor="middle" font-weight="400" font-family="JetBrains Mono, DejaVu Sans Mono, Menlo, Consolas, monospace" dominant-baseline="middle" xml:space="preserve">out</text><rect x="276" y="18" width="112" height="70" rx="4" stroke="#2a2a2a" fill="#0c0c0c" stroke-width="1" stroke-linecap="round" stroke-linejoin="round"/><line x1="286" y1="78" x2="380" y2="78" stroke="#3a3a3a" fill="none" stroke-width="1" stroke-linecap="round" stroke-linejoin="round"/><line x1="286" y1="26" x2="286" y2="78" stroke="#3a3a3a" fill="none" stroke-width="1" stroke-linecap="round" stroke-linejoin="round"/><path d="M288.0,75.5 L291.9,66.7 L295.8,60.6 L299.7,57.0 L303.6,51.3 L307.5,47.7 L311.4,46.3 L315.3,42.3 L319.2,40.3 L323.1,40.1 L327.0,37.1 L330.9,36.0 L334.8,36.5 L338.7,34.1 L342.6,33.5 L346.5,34.4 L350.4,32.4 L354.3,32.0 L358.2,33.2 L362.1,31.4 L366.0,31.2 L369.9,32.5 L373.8,30.8 L377.7,30.7" stroke="#00ff41" fill="none" stroke-width="1.6" filter="url(#glow)" stroke-linecap="round" stroke-linejoin="round"/><text x="374" y="70" font-size="8.5" fill="#8a8a8a" text-anchor="end" font-weight="400" font-family="JetBrains Mono, DejaVu Sans Mono, Menlo, Consolas, monospace" dominant-baseline="middle" xml:space="preserve">loss</text><rect x="300" y="98" width="20" height="20" rx="2" stroke="#00ff41" fill="#0a3d18" stroke-width="1" stroke-linecap="round" stroke-linejoin="round"/><text x="310" y="108.5" font-size="9" fill="#00ff41" text-anchor="middle" font-weight="600" font-family="JetBrains Mono, DejaVu Sans Mono, Menlo, Consolas, monospace" dominant-baseline="middle" xml:space="preserve">18</text><rect x="322" y="98" width="20" height="20" rx="2" stroke="#3a3a3a" fill="#0c0c0c" stroke-width="1" stroke-linecap="round" stroke-linejoin="round"/><text x="332" y="108.5" font-size="9" fill="#8a8a8a" text-anchor="middle" font-weight="600" font-family="JetBrains Mono, DejaVu Sans Mono, Menlo, Consolas, monospace" dominant-baseline="middle" xml:space="preserve">2</text><rect x="344" y="98" width="20" height="20" rx="2" stroke="#3a3a3a" fill="#0c0c0c" stroke-width="1" stroke-linecap="round" stroke-linejoin="round"/><text x="354" y="108.5" font-size="9" fill="#8a8a8a" text-anchor="middle" font-weight="600" font-family="JetBrains Mono, DejaVu Sans Mono, Menlo, Consolas, monospace" dominant-baseline="middle" xml:space="preserve">1</text><rect x="300" y="120" width="20" height="20" rx="2" stroke="#3a3a3a" fill="#0c0c0c" stroke-width="1" stroke-linecap="round" stroke-linejoin="round"/><text x="310" y="130.5" font-size="9" fill="#8a8a8a" text-anchor="middle" font-weight="600" font-family="JetBrains Mono, DejaVu Sans Mono, Menlo, Consolas, monospace" dominant-baseline="middle" xml:space="preserve">2</text><rect x="322" y="120" width="20" height="20" rx="2" stroke="#00ff41" fill="#0a3d18" stroke-width="1" stroke-linecap="round" stroke-linejoin="round"/><text x="332" y="130.5" font-size="9" fill="#00ff41" text-anchor="middle" font-weight="600" font-family="JetBrains Mono, DejaVu Sans Mono, Menlo, Consolas, monospace" dominant-baseline="middle" xml:space="preserve">16</text><rect x="344" y="120" width="20" height="20" rx="2" stroke="#3a3a3a" fill="#0c0c0c" stroke-width="1" stroke-linecap="round" stroke-linejoin="round"/><text x="354" y="130.5" font-size="9" fill="#8a8a8a" text-anchor="middle" font-weight="600" font-family="JetBrains Mono, DejaVu Sans Mono, Menlo, Consolas, monospace" dominant-baseline="middle" xml:space="preserve">2</text><rect x="300" y="142" width="20" height="20" rx="2" stroke="#3a3a3a" fill="#0c0c0c" stroke-width="1" stroke-linecap="round" stroke-linejoin="round"/><text x="310" y="152.5" font-size="9" fill="#8a8a8a" text-anchor="middle" font-weight="600" font-family="JetBrains Mono, DejaVu Sans Mono, Menlo, Consolas, monospace" dominant-baseline="middle" xml:space="preserve">1</text><rect x="322" y="142" width="20" height="20" rx="2" stroke="#3a3a3a" fill="#0c0c0c" stroke-width="1" stroke-linecap="round" stroke-linejoin="round"/><text x="332" y="152.5" font-size="9" fill="#8a8a8a" text-anchor="middle" font-weight="600" font-family="JetBrains Mono, DejaVu Sans Mono, Menlo, Consolas, monospace" dominant-baseline="middle" xml:space="preserve">2</text><rect x="344" y="142" width="20" height="20" rx="2" stroke="#00ff41" fill="#0a3d18" stroke-width="1" stroke-linecap="round" stroke-linejoin="round"/><text x="354" y="152.5" font-size="9" fill="#00ff41" text-anchor="middle" font-weight="600" font-family="JetBrains Mono, DejaVu Sans Mono, Menlo, Consolas, monospace" dominant-baseline="middle" xml:space="preserve">14</text><rect width="400" height="180" fill="url(#vig)" pointer-events="none"/></svg>